<svg id="visual" viewBox="0 0 900 600" width="900" height="600" xmlns="http://www.w3.org/2000/svg" xmlns:xlink="http://www.w3.org/1999/xlink" version="1.1"><rect x="0" y="0" width="900" height="600" fill="#002233"></rect><path d="M0 442L18.8 438.8C37.7 435.7 75.3 429.3 112.8 438.8C150.3 448.3 187.7 473.7 225.2 492C262.7 510.3 300.3 521.7 337.8 526.3C375.3 531 412.7 529 450.2 511.5C487.7 494 525.3 461 562.8 445.8C600.3 430.7 637.7 433.3 675.2 450.2C712.7 467 750.3 498 787.8 507.8C825.3 517.7 862.7 506.3 881.3 500.7L900 495L900 601L881.3 601C862.7 601 825.3 601 787.8 601C750.3 601 712.7 601 675.2 601C637.7 601 600.3 601 562.8 601C525.3 601 487.7 601 450.2 601C412.7 601 375.3 601 337.8 601C300.3 601 262.7 601 225.2 601C187.7 601 150.3 601 112.8 601C75.3 601 37.7 601 18.8 601L0 601Z" fill="#0066FF" stroke-linecap="round" stroke-linejoin="miter"></path></svg>



